<?xml version="1.0" encoding="UTF-8" standalone="no"?>
<svg
   width="5000"
   height="1706.667"
   viewBox="-5 0 3749.9993 1280"
   preserveAspectRatio="xMidYMid"
   version="1.1"
   id="svg51"
   sodipodi:docname="kspace-logo-reduced-with-text.svg"
   inkscape:version="1.4 (e7c3feb1, 2024-10-09)"
   xmlns:inkscape="http://www.inkscape.org/namespaces/inkscape"
   xmlns:sodipodi="http://sodipodi.sourceforge.net/DTD/sodipodi-0.dtd"
   xmlns="http://www.w3.org/2000/svg"
   xmlns:svg="http://www.w3.org/2000/svg">
  <sodipodi:namedview
     id="namedview51"
     pagecolor="#ffffff"
     bordercolor="#000000"
     borderopacity="0.25"
     inkscape:showpageshadow="2"
     inkscape:pageopacity="0.0"
     inkscape:pagecheckerboard="true"
     inkscape:deskcolor="#d1d1d1"
     showgrid="false"
     inkscape:zoom="0.13312959"
     inkscape:cx="2080.6794"
     inkscape:cy="1134.2332"
     inkscape:window-width="1640"
     inkscape:window-height="997"
     inkscape:window-x="57"
     inkscape:window-y="25"
     inkscape:window-maximized="0"
     inkscape:current-layer="svg51" />
  <style
     id="style1"><![CDATA[.B{fill-opacity:0}.C{fill-opacity:.228}]]></style>
  <g
     fill="#ffffff"
     id="g19">
    <path
       d="m 472.348,755.953 c -18.62,-4.343 -34.989,-9.032 -36.377,-10.42 -1.388,-1.388 -0.261,-10.242 2.505,-19.677 2.766,-9.435 4.317,-19.007 3.448,-21.273 -0.869,-2.266 -71.072,-54.399 -156.006,-115.852 l -154.425,-111.733 26.733,-2.112 c 14.703,-1.161 102.151,-2.257 194.329,-2.434 l 167.596,-0.322 6.29,-20.281 C 557.93,350.324 639.099,102.746 640.59,103.675 c 1.044,0.65 28.911,83.796 61.928,184.769 l 60.03,183.586 46.24,0.05 c 25.432,0.027 46.24,1.278 46.24,2.778 0,4.16 -37.625,57.677 -58.537,83.261 -25.221,30.856 -83.324,86.744 -115.671,111.262 -46.736,35.424 -139.217,86.931 -166.522,92.744 -4.452,0.948 -23.33,-1.83 -41.949,-6.174 z M 374.784,930.79 C 261.71,924.24 162.263,893.522 82.736,840.578 65.512,829.111 49.341,817.215 46.801,814.141 c -4.193,-5.075 -3.872,-5.42 3.494,-3.754 l 50.296,11.599 c 80.299,18.585 107.21,21.694 186.581,21.556 63.354,-0.11 77.516,-1.099 107.081,-7.476 100.633,-21.707 205.24,-71.849 302.627,-145.059 120.041,-90.24 185.426,-182.668 211.892,-299.53 14.254,-62.942 18.615,-116.696 16.357,-201.652 -1.115,-41.94 -2.795,-82.826 -3.734,-90.857 -1.654,-14.141 -1.554,-14.346 3.158,-6.49 7.9,13.172 23.991,64.142 30.86,97.756 17.997,88.066 16.72,202.872 -3.368,302.987 C 909.909,703.212 757.331,864.33 552.942,914.663 502.744,927.025 427.456,933.84 374.784,930.789 Z m 370.7,-79.819 c 76.981,-53.124 137.139,-122.478 181.39,-209.117 10.436,-20.432 27.76,-47.902 38.498,-61.043 34.768,-42.549 68.678,-96.166 94.388,-149.241 28.754,-59.359 41.14,-92.763 56.551,-152.51 l 10.881,-42.183 0.176,34.071 c 0.734,142.065 -54.501,298.235 -147.474,416.968 -47.071,60.112 -116.604,117.487 -182.533,150.615 -17.976,9.032 -68.697,29.476 -73.132,29.476 -1.887,0 7.677,-7.666 21.255,-17.036 z m 363.463,-345.865 c 0,-1.508 12.288,-33.182 13.243,-34.137 0.922,-0.922 4.337,-1.143 17.692,-1.143 9.102,0 16.717,0.272 16.923,0.605 0.387,0.627 -13.975,11.561 -32.72,24.911 -11.573,8.242 -15.138,10.542 -15.138,9.764 z m -140.092,23.795 c 0.259,-1.308 1.933,-8.622 3.72,-16.252 2.622,-11.194 7.909,-38.879 7.913,-41.436 0,-0.327 7.673,-0.595 17.049,-0.595 9.376,0 17.049,0.229 17.049,0.51 0,1.688 -39.559,53.383 -45.423,59.358 -0.511,0.52 -0.616,-0.025 -0.308,-1.586 z M 956.7,1074.239 718.222,901.755 c -0.98,-0.894 -1.663,-1.743 -1.519,-1.888 0.144,-0.145 4.871,-1.522 10.504,-3.062 37.577,-10.272 70.964,-23.824 105.792,-42.944 11.02,-6.049 39.065,-22.397 44.94,-26.195 1.716,-1.11 1.884,-0.631 38.708,110.545 l 41.63,125.735 c 2.555,7.741 4.405,14.058 4.112,14.038 -0.293,-0.02 -2.853,-1.706 -5.688,-3.745 z m -632.778,5.078 c 0,-1.223 15.961,-51.676 32.178,-101.716 l 7.489,-23.108 46.577,-0.382 c 41.373,-0.339 48.171,-0.575 60.85,-2.105 13.481,-1.627 27.213,-3.515 32.511,-4.47 l 2.379,-0.429 -1.982,1.719 c -4.718,4.091 -146.728,107.74 -170.089,124.143 -8.877,6.233 -9.912,6.896 -9.912,6.347 z M 261.223,815.235 C 223.022,793.446 186.923,768.74 157.804,744.455 144.681,733.511 111.036,700.019 100.181,687.096 89.132,673.94 78.426,659.821 69.216,646.259 58.458,630.417 43.907,606.215 45.139,606.215 c 0.203,0 5.117,3.471 10.919,7.714 15.63,11.429 51.308,35.091 68.039,45.125 62.635,37.563 132.163,68.941 198.239,89.466 52.082,16.178 96.145,25.397 146.3,30.609 9.159,0.952 17.167,2.008 17.797,2.346 2.228,1.197 -39.16,13.643 -72.511,21.806 -40.766,9.978 -83.18,17.052 -120.926,20.17 l -12.713,1.198 c -1.463,0.229 -6.64,-2.328 -19.061,-9.413 z"
       class="C"
       id="path1" />
    <path
       d="M 380.222,932.114 C 314.772,929.719 247.554,916.961 189.645,895.943 133.347,875.51 86.131,848.714 41.706,811.986 c -5.275,-4.361 -9.241,-8.046 -8.813,-8.189 0.428,-0.143 7.654,1.707 16.057,4.11 58.376,16.695 124.376,29.547 175.456,34.166 35.795,3.237 82.827,3.595 112.996,0.861 117.294,-10.63 238.791,-62.636 361.569,-154.769 32.749,-24.575 52.362,-41.474 78.976,-68.046 21.578,-21.544 34.966,-36.697 49.575,-56.107 44.895,-59.65 70.72,-118.82 85.081,-194.939 2.913,-15.439 6.827,-41.012 6.827,-44.605 v -2.131 h 24.978 24.978 v 15.743 c 0,80.916 -14.281,168.588 -38.704,237.606 -32.344,91.405 -86.269,168.921 -160.725,231.042 -83.231,69.442 -183.829,111.695 -291.807,122.565 -28.043,2.823 -67.134,3.95 -97.93,2.823 z M 492.821,761.657 c -32.18,-6.899 -60.05,-14.401 -60.805,-16.369 -0.206,-0.537 2.278,-9.658 5.521,-20.267 3.243,-10.609 5.749,-19.647 5.569,-20.083 -0.512,-1.24 -2.857,-2.96 -91.034,-66.742 L 205.375,531.987 133.074,479.61 l -8.865,-6.395 50.099,-0.503 197.362,-1.013 147.264,-0.51 1.578,-4.845 15.539,-48.457 21.099,-65.815 8.343,-25.973 1.204,-3.771 74.208,0.202 74.208,0.202 10.128,30.529 24.487,74.34 14.358,43.811 h 46.7 c 27.889,0 46.884,0.297 47.155,0.736 0.909,1.471 -18.984,32.311 -35.271,54.682 -35.386,48.604 -78.764,94.094 -126.061,132.197 -43.258,34.849 -96.895,67.835 -147.49,90.703 -8.773,3.965 -37.686,15.93 -38.206,15.81 -0.139,-0.032 -8.281,-1.779 -18.094,-3.883 z"
       class="C"
       id="path2" />
    <path
       d="m 492.76,761.484 c -26.655,-5.702 -58.676,-14.045 -60.875,-15.861 -0.187,-0.155 2.231,-8.765 5.375,-19.133 3.144,-10.368 5.715,-19.559 5.715,-20.422 0,-2.343 -1.774,-3.666 -108.056,-80.563 l -153.8,-111.318 -55.36,-40.097 6.141,-0.737 c 3.377,-0.405 60.622,-0.861 127.209,-1.013 l 190.597,-0.961 69.528,-0.684 4.211,-13.012 109.631,-341.707 c 3.241,-10.268 6.219,-19.023 6.618,-19.455 0.626,-0.678 46.414,137.362 106.381,320.712 l 17.67,54.028 h 46.609 c 25.635,0 46.878,0.434 47.206,0.966 0.635,1.027 -6.083,12.102 -19.661,32.413 -74.623,111.628 -182.766,200.751 -306.103,252.267 l -19.235,7.709 c -1.245,0.341 -10.155,-1.069 -19.801,-3.132 z"
       class="C"
       id="path3" />
    <path
       d="m 492.76,761.484 c -26.668,-5.704 -58.679,-14.046 -60.876,-15.862 -0.188,-0.156 2.23,-8.812 5.375,-19.237 3.145,-10.425 5.717,-19.614 5.717,-20.42 0,-2.226 -2.502,-4.09 -108.056,-80.459 L 181.119,514.187 125.759,474.09 131.9,473.353 c 3.377,-0.405 60.622,-0.861 127.209,-1.013 l 190.582,-0.961 69.514,-0.684 9.317,-28.853 104.011,-324.169 c 3.547,-11.202 6.791,-20.742 7.209,-21.2 0.418,-0.458 2.701,5.142 5.074,12.446 l 47.676,145.097 57.309,174.53 13.948,42.713 46.607,10e-4 c 25.634,0 46.875,0.435 47.204,0.966 1.125,1.821 -23.28,38.875 -41.663,63.258 -73.879,97.989 -172.379,174.758 -284.101,221.422 l -19.235,7.709 c -1.245,0.341 -10.155,-1.069 -19.801,-3.132 z"
       class="C"
       id="path4" />
    <path
       d="m 492.76,761.484 c -26.873,-5.748 -58.721,-14.057 -60.903,-15.889 -0.203,-0.17 2.27,-9.012 5.495,-19.648 3.225,-10.636 5.58,-20.08 5.232,-20.986 -0.734,-1.912 -5.5,-5.462 -69.195,-51.536 l -92.781,-67.166 -100.054,-72.48 -54.794,-39.689 6.141,-0.732 c 3.377,-0.403 61.385,-0.876 128.906,-1.051 l 190.582,-0.965 67.817,-0.646 9.309,-28.853 22.916,-71.283 39.604,-123.331 36.959,-115.411 11.758,-35.366 c 0.437,-0.471 2.965,5.894 5.617,14.144 l 75.961,231.112 28.494,86.84 13.927,42.713 46.607,10e-4 c 25.634,0 46.875,0.435 47.204,0.966 0.652,1.056 -6.234,12.344 -20.643,33.839 -74.041,110.452 -182.948,200.044 -304.785,250.729 l -19.571,7.82 c -1.245,0.341 -10.155,-1.069 -19.801,-3.132 z"
       class="C"
       id="path5" />
    <path
       d="m 492.76,761.495 c -27.012,-5.795 -58.73,-14.076 -60.903,-15.9 -0.203,-0.17 2.293,-9.087 5.546,-19.815 4.291,-14.152 5.609,-20.003 4.802,-21.318 -0.961,-1.565 -28.277,-21.666 -98.235,-72.287 l -105.228,-76.23 -103.467,-74.957 -9.554,-6.897 6.16,-0.732 c 3.388,-0.403 61.404,-0.876 128.925,-1.051 l 190.561,-0.965 67.795,-0.646 3.112,-9.618 9.341,-28.853 19.822,-61.666 39.592,-123.331 36.962,-115.411 11.695,-35.301 c 0.402,-0.435 15.656,44.626 33.897,100.136 l 47.739,145.054 28.5,86.84 13.927,42.713 46.607,0.001 c 25.634,0 46.875,0.435 47.204,0.966 0.639,1.034 -7.076,13.753 -20.004,32.979 -77.262,114.898 -189.072,205.532 -315.643,255.861 -6.058,2.409 -11.15,4.337 -11.315,4.286 -0.165,-0.051 -8.192,-1.788 -17.838,-3.857 z"
       class="C"
       id="path6" />
    <path
       d="m 499.549,763.066 c -31.053,-6.81 -65.905,-15.79 -67.696,-17.444 -0.205,-0.19 2.213,-8.85 5.375,-19.244 3.162,-10.394 5.748,-19.61 5.748,-20.479 0,-1.618 -15.573,-13.43 -59.403,-45.058 l -40.733,-29.463 -52.614,-38.114 -84.861,-61.476 -63.852,-46.279 -15.764,-11.417 6.147,-0.728 c 3.381,-0.4 61.391,-0.877 128.912,-1.06 l 190.561,-0.97 67.795,-0.637 3.13,-9.618 13.463,-41.865 15.852,-49.219 80.348,-250.623 c 3.854,-12.135 7.359,-22.445 7.789,-22.91 0.43,-0.465 4.376,10.227 8.769,23.761 l 34.081,103.811 77.341,235.631 3.729,11.598 h 46.649 c 25.657,0 46.918,0.434 47.246,0.966 1.033,1.672 -20.073,34.147 -37.613,57.871 -63.454,85.832 -143.849,154.427 -239.351,204.217 -22.162,11.554 -67.317,31.423 -70.439,30.995 -0.545,-0.075 -5.319,-1.085 -10.609,-2.245 z"
       class="C"
       id="path7" />
    <path
       d="m 498.983,762.952 c -33.013,-7.176 -67.328,-16.233 -67.32,-17.768 0.002,-0.369 2.548,-9.032 5.657,-19.252 3.109,-10.22 5.654,-19.264 5.654,-20.098 0,-1.546 -15.434,-13.248 -58.837,-44.611 L 270.99,579.299 153.922,494.522 l -28.247,-20.431 6.183,-0.728 c 3.401,-0.4 61.427,-0.881 128.948,-1.068 l 190.561,-0.97 67.795,-0.629 2.567,-7.92 102.989,-320.775 11.384,-35.642 c 1.594,-4.979 3.235,-9.425 3.645,-9.882 0.41,-0.457 4.702,11.254 9.538,26.024 l 34.096,103.795 77.113,235.065 3.156,9.9 h 46.656 c 25.661,0 46.925,0.434 47.253,0.966 1.033,1.672 -20.073,34.147 -37.613,57.871 -63.478,85.865 -143.813,154.408 -239.351,204.217 -22.191,11.57 -67.333,31.43 -70.439,30.99 -0.545,-0.077 -5.574,-1.137 -11.175,-2.354 z"
       class="C"
       id="path8" />
    <path
       d="m 498.983,762.952 c -33.013,-7.176 -67.328,-16.233 -67.32,-17.768 0.002,-0.369 2.548,-9.032 5.657,-19.252 3.109,-10.22 5.654,-19.264 5.654,-20.098 0,-1.546 -15.434,-13.248 -58.837,-44.611 l -113.147,-81.93 -117.108,-84.777 -28.287,-20.425 6.223,-0.719 c 3.423,-0.396 62.231,-0.905 130.686,-1.131 l 190.608,-0.978 66.146,-0.566 1.914,-6.223 7.779,-24.327 31.132,-96.742 29.945,-93.347 34.685,-108.056 11.39,-35.642 c 1.594,-4.979 3.235,-9.425 3.645,-9.882 0.41,-0.457 4.699,11.254 9.531,26.024 l 19.96,60.798 81.699,248.636 12.812,39.312 46.607,0.007 c 25.634,0.004 46.875,0.441 47.204,0.972 1.033,1.672 -20.073,34.147 -37.613,57.871 -63.586,86.012 -143.65,154.323 -239.351,204.217 -22.191,11.57 -67.333,31.43 -70.439,30.99 -0.545,-0.077 -5.574,-1.137 -11.175,-2.354 z"
       class="C"
       id="path9" />
    <path
       d="m 498.983,762.952 c -33.013,-7.176 -67.328,-16.233 -67.32,-17.768 0.002,-0.369 2.548,-9.032 5.657,-19.252 3.109,-10.22 5.654,-19.228 5.654,-20.018 0,-0.79 -2.928,-3.68 -6.506,-6.421 -6.497,-4.978 -63.686,-46.623 -74.395,-54.175 l -95.044,-68.825 -115.411,-83.62 -26.024,-18.784 6.789,-0.705 c 3.734,-0.388 92.062,-1.038 196.286,-1.445 l 190.269,-1.558 c 0.425,-0.45 1.529,-3.364 2.453,-6.476 0.924,-3.112 4.324,-13.804 7.553,-23.761 l 31.148,-96.742 24.306,-75.809 47.171,-147.092 c 4.057,-12.757 7.724,-23.569 8.15,-24.025 0.426,-0.456 4.728,11.254 9.559,26.024 l 19.96,60.798 78.693,239.308 12.617,38.753 3.146,9.9 h 46.634 c 25.649,0 46.904,0.436 47.233,0.97 0.329,0.534 -3.079,6.771 -7.574,13.861 -68.277,107.684 -157.485,189.883 -269.39,248.226 -23.038,12.011 -67.373,31.489 -70.539,30.99 -0.49,-0.077 -5.474,-1.137 -11.075,-2.354 z"
       class="C"
       id="path10" />
    <path
       d="m 498.983,762.952 c -33.013,-7.176 -67.328,-16.233 -67.32,-17.768 0.002,-0.369 2.548,-9.032 5.657,-19.252 3.109,-10.22 5.654,-19.248 5.654,-20.063 0,-1.681 -8.235,-7.959 -51.482,-39.245 L 218.376,541.253 148.248,490.44 l -22.606,-16.35 6.2,-0.729 c 3.41,-0.401 60.426,-0.903 126.702,-1.116 l 190.608,-0.968 70.106,-0.581 1.914,-6.223 7.779,-24.327 31.141,-96.742 24.306,-75.809 47.171,-147.092 c 4.057,-12.757 7.734,-23.578 8.172,-24.047 0.438,-0.469 6.509,16.589 13.49,37.905 l 95.285,289.945 12.586,38.753 2.527,8.203 h 46.667 c 25.667,0 46.935,0.434 47.264,0.966 0.329,0.532 -2.241,5.495 -5.709,11.032 -67.827,108.275 -158.685,192.368 -271.254,251.057 -23.038,12.011 -67.373,31.489 -70.539,30.99 -0.49,-0.077 -5.474,-1.137 -11.075,-2.354 z"
       class="C"
       id="path11" />
    <path
       d="m 499.549,763.066 c -31.098,-6.82 -65.907,-15.791 -67.701,-17.449 -0.208,-0.192 2.281,-9.133 5.532,-19.868 4.252,-14.044 5.599,-20.012 4.8,-21.277 -0.949,-1.504 -26.667,-20.425 -95.947,-70.587 L 298.711,599.478 220.073,542.53 153.881,494.625 129.555,477 l -3.96,-2.91 6.223,-0.723 c 3.423,-0.398 60.449,-0.906 126.726,-1.13 l 190.608,-0.974 70.106,-0.567 1.902,-6.223 11.78,-36.773 20.403,-63.363 31.062,-96.742 47.163,-147.092 c 4.057,-12.757 7.722,-23.567 8.146,-24.021 0.424,-0.454 5.416,13.293 11.095,30.55 l 34.295,104.356 40.19,122.2 35.802,109.471 2.533,8.203 h 46.667 c 25.667,0 46.935,0.434 47.264,0.966 0.934,1.512 -15.176,26.732 -32.632,51.083 -63.168,88.12 -146.835,160.367 -244.478,211.107 -23.077,11.992 -67.241,31.374 -70.392,30.893 -0.49,-0.075 -5.219,-1.085 -10.509,-2.245 z M 386.401,932.148 C 358.997,931.412 320.888,927.586 291.922,922.66 205.493,907.964 122.093,873.402 60.763,826.864 47.011,816.429 33.186,804.863 33.768,804.281 c 0.269,-0.269 7.772,1.615 16.673,4.187 55.299,15.978 118.567,28.23 176.421,34.165 22.813,2.34 101.624,1.944 122.189,-0.615 102.349,-12.733 199,-51.176 303.248,-120.617 122.49,-81.592 197.246,-165.581 236.237,-265.415 13.932,-35.671 24.441,-79.578 30.739,-128.423 5.622,-43.603 6.209,-54.42 6.199,-114.28 -0.01,-59.785 -0.544,-69.779 -6.253,-116.884 -1.267,-10.456 -2.109,-19.597 -1.87,-20.313 0.239,-0.716 2.615,3.256 5.28,8.827 25.141,52.554 40.451,117.524 45.309,192.279 1.495,23.012 1.516,78.361 0.038,101.872 -8.087,128.644 -39.925,231.554 -98.185,317.361 -51.388,75.685 -125.051,139.771 -206.602,179.74 -59.579,29.2 -119.413,46.175 -187.968,53.326 -13.956,1.456 -58.079,3.462 -69.586,3.164 l -19.235,-0.508 z"
       class="C"
       id="path12" />
    <path
       d="M 377.349,931.727 C 266.296,927.153 161.218,895.032 80.564,841.004 63.473,829.555 32.668,805.382 33.768,804.282 c 0.269,-0.269 7.772,1.615 16.673,4.187 55.299,15.978 118.567,28.23 176.421,34.165 22.813,2.34 101.624,1.944 122.189,-0.615 C 451.344,829.293 548.347,790.668 652.59,721.156 774.039,640.17 848.248,557.239 887.507,458.63 c 14.299,-35.916 25.49,-82.071 31.778,-131.066 5.635,-43.906 6.204,-54.427 6.183,-114.28 -0.021,-59.75 -0.572,-70.047 -6.248,-116.884 -1.267,-10.456 -2.109,-19.597 -1.87,-20.313 0.239,-0.716 2.615,3.256 5.28,8.827 25.528,53.364 40.706,118.512 45.433,195.012 1.524,24.66 0.841,93.637 -1.16,117.223 -13.605,160.36 -65.115,280.528 -161.515,376.798 -27.113,27.077 -52.255,47.577 -84.635,69.011 -46.123,30.53 -94.054,52.607 -147.564,67.966 -42.999,12.342 -83.249,18.596 -134.175,20.85 -26.911,1.191 -31.697,1.187 -61.666,-0.047 z"
       class="C"
       id="path13" />
    <path
       d="M 376.783,931.724 C 265.679,926.979 161.095,894.949 80.564,841.004 63.473,829.555 32.668,805.382 33.768,804.282 c 0.269,-0.269 7.772,1.615 16.673,4.187 60.787,17.563 132.495,30.814 189.433,35.006 20.313,1.495 72.894,1.512 91.768,0.029 91.441,-7.185 185.307,-39.58 280.876,-96.936 104.35,-62.626 184.611,-134.169 232.693,-207.418 46.339,-70.593 67.063,-136.479 78.298,-248.926 1.6,-16.013 1.975,-30.732 1.958,-76.941 -0.021,-59.75 -0.571,-70.047 -6.248,-116.884 -1.267,-10.456 -2.109,-19.597 -1.87,-20.313 0.239,-0.716 2.615,3.256 5.28,8.827 25.469,53.24 40.591,118.017 45.42,194.561 1.711,27.115 0.738,97.9 -1.703,123.897 -11.241,119.728 -42.535,214.177 -97.661,294.751 -61.553,89.968 -152.537,161.21 -254.292,199.115 -57.428,21.393 -109.113,31.595 -174.814,34.508 -27.587,1.223 -33.688,1.221 -62.797,-0.023 z"
       class="C"
       id="path14" />
    <path
       d="M 376.783,931.802 C 265.882,926.62 166.028,896.56 85.427,844.09 65.835,831.336 32.445,805.605 33.768,804.281 c 0.269,-0.269 7.772,1.615 16.673,4.187 62.583,18.082 134.845,31.263 192.827,35.172 24.889,1.678 87.567,0.644 106.925,-1.764 75.379,-9.377 148.043,-33.166 222.336,-72.79 78.947,-42.106 156.662,-98.729 209.778,-152.845 80.662,-82.18 121.514,-168.154 136.902,-288.114 5.738,-44.734 6.287,-54.814 6.252,-114.845 -0.035,-59.707 -0.605,-70.379 -6.241,-116.884 -1.267,-10.456 -2.109,-19.597 -1.87,-20.313 0.239,-0.716 2.615,3.256 5.28,8.827 25.553,53.415 40.643,118.175 45.468,195.127 1.665,26.558 0.655,97.708 -1.75,123.331 -14.879,158.478 -65.659,275.439 -160.922,370.647 -67.615,67.575 -151.851,116.011 -243.644,140.096 -54.939,14.415 -120.614,20.693 -184.997,17.686 z"
       class="C"
       id="path15" />
    <use
       href="#B"
       class="C"
       id="use15" />
    <use
       href="#B"
       class="C"
       id="use16" />
    <path
       d="m 969.113,529.33 c 0,-0.581 1.742,-8.665 3.871,-17.965 2.129,-9.3 4.758,-22.381 5.842,-29.071 l 1.971,-12.163 h 17.397 17.397 l -6.447,8.769 c -18.01,24.495 -40.032,52.238 -40.032,50.43 z m -260.24,344.256 c 0,-0.266 2.928,-2.135 6.506,-4.154 52.968,-29.887 116.539,-86.887 156.985,-140.759 24.075,-32.067 45.656,-68.496 62.776,-105.965 6.46,-14.138 8.192,-16.804 20.456,-31.488 70.725,-84.679 121.605,-179.495 152.11,-283.458 6.642,-22.638 10.03,-36.222 15.944,-63.929 l 4.951,-23.195 -0.426,47.522 c -0.526,58.685 -2.522,78.991 -12.679,128.989 -26.073,128.334 -88.301,248.832 -173.484,335.933 -46.769,47.822 -92.559,80.994 -150.762,109.218 -25.584,12.406 -41.43,18.912 -64.76,26.589 -15.457,5.086 -17.617,5.662 -17.617,4.696 z"
       class="C"
       id="path16" />
    <path
       d="m 708.873,873.644 c 0,-0.234 5.345,-3.582 11.878,-7.441 52.722,-31.141 112.696,-85.573 151.695,-137.679 24.231,-32.375 45.762,-68.72 62.749,-105.922 6.244,-13.676 8.397,-17.088 17.834,-28.272 71.91,-85.22 123.813,-181.381 154.677,-286.567 6.642,-22.638 10.03,-36.222 15.944,-63.929 l 4.951,-23.195 -0.426,47.522 c -0.526,58.685 -2.522,78.991 -12.679,128.989 -26.073,128.334 -88.301,248.832 -173.484,335.933 -46.769,47.822 -92.559,80.994 -150.762,109.218 -25.584,12.406 -41.43,18.912 -64.76,26.589 -15.235,5.013 -17.617,5.656 -17.617,4.754 z"
       class="C"
       id="path17" />
    <path
       d="M 0.566,639.852 V 0.566 H 639.853 1279.14 V 639.853 1279.14 H 639.852 0.566 Z M 359.52,1055.847 507.023,947.422 c 0.583,-0.944 -0.705,-1.077 -4.751,-0.493 -37.045,5.349 -38.817,5.468 -89.512,6.017 l -50.016,0.541 -1.125,3.57 -16.365,51.092 -22.216,71.585 c 0,2.221 2.765,0.411 36.482,-23.887 z m 603.936,21.749 c 0,-0.699 -18.607,-57.471 -41.348,-126.16 L 879.295,826.547 c -0.806,0 -8.803,4.374 -17.772,9.72 -49.329,29.406 -83.232,44.609 -129.933,58.267 -8.353,2.443 -15.405,4.659 -15.671,4.925 -0.266,0.266 -0.15,1.022 0.257,1.68 1.581,2.559 244.317,177.727 246.281,177.727 0.55,0 0.999,-0.572 0.999,-1.271 z M 448.632,932.306 c 76.711,-3.162 157.04,-24.572 224.613,-59.865 50.77,-26.517 91.782,-56.708 132.988,-97.898 22.004,-21.995 38.046,-40.564 54.436,-63.007 73.112,-100.113 109.51,-227.678 109.564,-383.993 0.035,-97.311 -15.141,-176.767 -46.373,-242.801 -8.669,-18.33 -10.172,-19.282 -7.847,-4.974 3.018,18.574 6.854,60.966 7.985,88.255 5.44,131.249 -11.543,239.388 -50.021,318.512 -41.585,85.514 -112.287,160.204 -219.744,232.14 -103.443,69.249 -200.163,108.431 -300.08,121.562 -17.335,2.278 -24.041,2.528 -67.889,2.531 -51.933,0 -63.195,-0.726 -104.096,-6.744 -38.247,-5.628 -95.569,-18.209 -135.704,-29.784 -8.672,-2.501 -16.05,-4.264 -16.396,-3.918 -1.44,1.44 28.571,25.26 50.267,39.899 53.279,35.948 121.006,63.451 190.965,77.55 59.583,12.008 107.65,15.405 177.332,12.533 z m 271.474,-60.035 c 30.438,-9.439 69.761,-26.409 99.086,-42.76 65.484,-36.514 125.466,-89.542 173.261,-153.174 68.21,-90.813 114.939,-204.843 131.566,-321.052 4.092,-28.599 4.811,-40.184 5.427,-87.37 0.547,-41.88 0.284,-51.56 -1.352,-49.924 -0.278,0.278 -2.803,11.679 -5.612,25.337 -20.531,99.821 -59.559,193.805 -114.429,275.563 -19.591,29.191 -38.679,54.542 -57.425,76.268 -6.724,7.793 -9.57,12.671 -20.467,35.076 -30.174,62.043 -59.702,104.442 -104.701,150.34 -35.278,35.983 -73.605,66.357 -110.864,87.861 -16.144,9.317 -14.917,10.171 5.51,3.836 z M 300.533,823.687 c 54.16,-5.374 109.328,-16.566 163.777,-33.223 19.965,-6.108 25.24,-8.239 23.846,-9.633 -0.272,-0.272 -10.166,-1.568 -21.988,-2.881 C 371.39,767.423 281.036,739.538 185.564,691.352 135.322,665.994 101.33,645.136 48.917,607.502 c -2.345,-1.684 -4.544,-2.78 -4.888,-2.437 -2.388,2.388 26.237,46.38 48.036,73.824 12.382,15.589 51.051,54.846 66.909,67.925 20.922,17.257 47.639,36.362 73.546,52.592 20.358,12.754 44.591,26.009 47.551,26.009 1.677,0 10.885,-0.778 20.463,-1.728 z m 229.2,-64.51 c 126.361,-52.232 234.379,-141.592 311.788,-257.931 14.429,-21.686 18.446,-28.623 17.259,-29.811 -0.406,-0.406 -21.792,-0.882 -47.525,-1.058 l -46.787,-0.319 -1.13,-3.641 c -0.915,-2.947 -82.676,-251.981 -114.595,-349.045 -4.352,-13.234 -8.364,-23.784 -8.914,-23.444 -0.55,0.34 -4.553,11.678 -8.894,25.194 l -109.565,341.489 -2.85,9.15 -78.789,0.75 -175.53,0.753 -119.554,0.743 -22.813,0.739 8.104,5.88 220.822,159.91 91.084,67.779 c 0,0.857 -2.6,9.978 -5.778,20.268 -3.178,10.29 -5.342,19.108 -4.809,19.595 1.376,1.258 13.673,5.091 27.559,8.591 9.928,2.502 49.736,11.433 52.248,11.722 0.421,0.048 8.822,-3.242 18.669,-7.313 z M 987.712,509.229 c 14.472,-18.652 28.875,-38.291 28.902,-39.41 0.012,-0.482 -8.247,-0.737 -18.352,-0.566 l -18.374,0.311 -2.523,14.709 c -1.388,8.09 -4.04,21.136 -5.895,28.991 -5.513,23.348 -5.527,21.595 0.127,15.608 2.693,-2.852 9.945,-11.692 16.115,-19.644 z m 155.367,-26.506 c 8.868,-6.556 16.124,-12.326 16.124,-12.822 0,-0.496 -8.388,-0.902 -18.64,-0.902 h -18.64 l -1.602,3.112 c -2.41,4.681 -12.034,31.663 -12.034,33.738 0,2.016 7.793,-3.164 34.793,-23.125 z"
       class="B"
       id="path18" />
    <path
       d="m 324.594,1077.021 4.734,-15.126 28.914,-90.119 5.639,-17.139 49.447,-0.561 c 48.412,-0.549 64.783,-1.661 88.01,-5.979 4.08,-0.758 3.35,-0.017 -9.144,9.292 l -164.827,119.717 c -3.33,1.967 -3.415,1.964 -2.773,-0.085 z M 260.241,814.574 C 180.614,768.449 124.325,720.739 81.468,663.048 66.717,643.19 44.8,608.819 46.076,607.544 c 0.29,-0.29 2.77,1.184 5.513,3.275 20.088,15.314 60.819,41.91 88.342,57.684 104.164,59.696 216.343,98.06 321.476,109.943 l 25.3,3.2 c 0.647,0.647 -35.249,11.729 -55.612,17.17 -45.304,12.104 -104.613,22.421 -143.132,24.899 l -10.749,0.691 z"
       class="C"
       id="path19" />
  </g>
  <path
     d="M 915.901,1044.706 719.816,902.729 c -2.153,-1.776 -2.708,-2.796 -1.697,-3.118 0.827,-0.263 8.886,-2.619 17.909,-5.235 41.377,-11.996 76.997,-28.006 123.172,-55.361 15.09,-8.939 19.861,-11.282 20.586,-10.109 0.519,0.84 7.556,21.401 15.638,45.692 l 66.691,202.592 c -0.232,0.232 -21.028,-14.386 -46.214,-32.484 z"
     class="B"
     id="path20" />
  <g
     fill="#ffffff"
     id="g51">
    <use
       href="#C"
       class="B"
       id="use20" />
    <use
       href="#C"
       class="B"
       id="use21" />
    <use
       href="#C"
       class="B"
       id="use22" />
    <use
       href="#C"
       class="B"
       id="use23" />
    <use
       href="#C"
       class="B"
       id="use24" />
    <use
       href="#C"
       class="B"
       id="use25" />
    <use
       href="#C"
       class="B"
       id="use26" />
    <use
       href="#C"
       class="B"
       id="use27" />
    <use
       href="#C"
       class="B"
       id="use28" />
    <use
       href="#C"
       class="B"
       id="use29" />
    <use
       href="#C"
       class="B"
       id="use30" />
    <use
       href="#C"
       class="B"
       id="use31" />
    <use
       href="#C"
       class="B"
       id="use32" />
    <use
       href="#C"
       class="B"
       id="use33" />
    <use
       href="#C"
       class="B"
       id="use34" />
    <use
       href="#C"
       class="B"
       id="use35" />
    <use
       href="#C"
       class="B"
       id="use36" />
    <use
       href="#C"
       class="B"
       id="use37" />
    <use
       href="#C"
       class="B"
       id="use38" />
    <use
       href="#C"
       class="B"
       id="use39" />
    <use
       href="#C"
       class="B"
       id="use40" />
    <use
       href="#C"
       class="B"
       id="use41" />
    <use
       href="#D"
       class="B"
       id="use42" />
    <use
       href="#D"
       class="B"
       id="use43" />
    <use
       href="#D"
       class="B"
       id="use44" />
    <use
       href="#D"
       class="B"
       id="use45" />
    <use
       href="#D"
       class="B"
       id="use46" />
    <use
       href="#D"
       class="B"
       id="use47" />
    <use
       href="#D"
       id="use48" />
    <use
       href="#C"
       id="use49" />
    <path
       d="m 471.06,756.23 c -19.531,-4.999 -36.196,-9.774 -37.033,-10.612 -0.837,-0.838 0.974,-10.252 4.025,-20.921 l 5.548,-19.796 c 0,-0.353 -85.713,-62.72 -259.937,-189.136 l -57.029,-41.38 26.243,-0.247 85.016,-1.406 169.683,-1.152 110.91,0.007 2.979,-7.697 c 1.638,-4.233 18.892,-57.444 38.342,-118.246 l 79.489,-244.21 c 1.542,-1.689 111.224,325.246 121.032,360.769 l 2.555,9.253 47.911,0.765 47.911,0.765 -21.404,31.667 c -61.427,90.88 -142.18,165.531 -235.571,217.771 -24.335,13.612 -79.431,39.405 -88.448,41.407 -3.69,0.819 -22.689,-2.601 -42.22,-7.6 z M 341.445,928.741 C 284.684,921.992 252.257,915.211 207.106,900.648 170.959,888.989 116.391,863.701 89.195,846.007 65.921,830.864 39.654,810.228 41.413,808.469 c 0.704,-0.704 18.752,3.118 40.106,8.494 79.367,19.978 133.938,27.207 205.351,27.201 53.95,-0.007 74.294,-2.008 119.235,-11.745 C 533.58,804.8 685.14,716.296 788.321,609.222 849.607,545.623 886.781,479.3 906.312,398.709 c 15.057,-62.132 17.179,-84.182 17.226,-179.008 0.024,-48.488 -0.901,-99.495 -2.056,-113.349 -1.945,-23.334 -1.789,-24.631 2.124,-17.614 2.323,4.166 7.85,17.409 12.282,29.429 46.945,127.321 42.868,325.46 -9.614,467.17 -68.801,185.779 -241.378,319.407 -442.094,342.321 -23.184,2.647 -123.205,3.407 -142.735,1.084 z"
       id="path49" />
    <path
       d="M 319.055,926.201 C 216.936,912.332 121.528,874.539 55.05,821.623 46.845,815.092 40.71,809.171 41.417,808.465 c 0.707,-0.706 16.235,2.473 34.509,7.064 82.645,20.766 139.203,28.297 212.326,28.273 54.593,-0.018 89.271,-4.012 133.328,-15.357 77.954,-20.073 151.124,-54.303 233.323,-109.15 82.877,-55.3 147.55,-116.472 190.94,-180.603 41.22,-60.925 68.206,-145.731 76.571,-240.626 3.129,-35.495 1.948,-170.679 -1.785,-204.307 l -1.398,-12.594 5.772,10.556 c 8.762,16.025 24.171,64.439 30.49,95.796 24.289,120.541 14.41,273.538 -24.939,386.225 -66.186,189.542 -234.873,325.965 -436.196,352.766 -37.715,5.021 -137.363,4.847 -175.302,-0.306 z m 401.618,-57.954 c 0.77,-0.851 10.215,-7.514 20.99,-14.807 29.908,-20.243 53.303,-40.001 83.174,-70.244 46.659,-47.24 74.251,-86.103 105.374,-148.419 8.701,-17.421 22.834,-39.207 36.311,-55.975 75.162,-93.509 129.405,-206.329 155.833,-324.118 l 6.907,-30.786 -1.5,50.377 c -2.346,78.773 -11.806,133.563 -35.274,204.307 -57.799,174.231 -174.608,308.944 -323.23,372.772 -31.374,13.474 -51.972,20.636 -48.585,16.892 z m 127.01,126.068 -118.761,-86.359 -9.321,-7.229 28.075,-9.015 c 29.27,-9.398 82.683,-34.143 111.534,-51.672 9.236,-5.611 17.668,-10.205 18.739,-10.209 2.399,-0.009 81.241,237.408 80.038,241.018 -0.476,1.427 -50.113,-33.014 -110.304,-76.535 z m -520.621,77.462 17.512,-54.438 17.141,-55.275 c 1.347,-6.176 2.151,-6.297 41.739,-6.297 22.201,0 52.407,-1.343 67.125,-2.984 14.718,-1.641 27.128,-2.586 27.578,-2.099 0.953,1.029 -144.114,107.686 -166.174,122.176 -6.29,4.131 -6.566,4.07 -4.921,-1.083 z M 253.285,809.775 C 171.123,761.27 104.411,699.693 61.748,632.981 c -5.742,-8.979 -9.84,-16.925 -9.107,-17.658 0.733,-0.733 16.267,8.609 34.519,20.76 56.689,37.74 103.008,62.482 163.58,87.381 69.639,28.626 148.666,49.707 205.711,54.876 11.488,1.041 21.471,2.835 22.183,3.987 2.732,4.421 -90.515,27.397 -140.292,34.568 -59.618,8.588 -58.254,8.703 -85.057,-7.121 z M 1109.13,504.848 c 0,-0.648 6.201,-17.949 9.89,-27.594 3.062,-8.005 1.554,-7.458 20.414,-7.407 8.884,0.024 16.625,0.231 17.203,0.461 0.798,0.318 -1.343,2.217 -8.922,7.91 -12.299,9.239 -37.497,27.263 -38.124,27.269 -0.254,0.002 -0.462,-0.285 -0.462,-0.64 z m -140.886,25.995 c -0.014,-0.44 0.953,-4.685 2.149,-9.434 3.286,-13.048 6.185,-26.81 7.954,-37.761 l 1.933,-11.537 0.343,-1.692 h 17.18 c 9.449,0 17.18,0.165 17.18,0.366 0,1.063 -22.632,31.287 -34.34,45.86 -10.582,13.171 -12.368,15.216 -12.399,14.199 z"
       id="path50" />
    <path
       d="m 953.144,1071.762 -156.601,-112.846 -78.061,-56.93 -2.24,-1.944 1.538,-0.642 c 0.846,-0.353 5.83,-1.783 11.076,-3.177 12.638,-3.359 37.892,-11.815 50.149,-16.792 27.817,-11.296 49.429,-22.353 83.992,-42.971 l 16.306,-9.727 0.756,1.672 c 0.62,1.372 30.71,91.813 75.024,225.498 4.235,12.776 7.607,23.494 7.495,23.819 -0.112,0.325 -4.359,-2.358 -9.435,-5.96 z m -629.174,7.262 c 0,-0.763 6.337,-21.396 12.392,-40.35 l 24.578,-76.354 2.446,-7.437 40.133,-0.426 49.439,-0.997 c 10.446,-0.641 32.202,-3.108 44.093,-5 4.325,-0.688 8.117,-1.162 8.425,-1.053 0.585,0.207 -12.958,10.265 -73.208,54.37 l -107.529,77.448 c -0.423,0.243 -0.769,0.152 -0.769,-0.201 z"
       id="path51" />
  </g>
  <defs
     id="defs51">
    <rect
       x="2028.0519"
       y="270.40692"
       width="3019.5439"
       height="1010.8068"
       id="rect51" />
    <path
       id="B"
       d="m 969.113,529.241 c 0,-0.589 1.752,-8.657 3.894,-17.928 2.142,-9.271 4.771,-22.33 5.842,-29.02 l 1.948,-12.163 h 17.37 17.37 l -9.811,13.295 c -18.063,24.477 -36.614,47.691 -36.614,45.816 z" />
    <path
       id="C"
       d="m 471.109,756.148 c -19.504,-4.899 -36.214,-9.66 -37.135,-10.581 -0.921,-0.921 0.852,-9.732 3.939,-19.581 3.087,-9.849 5.629,-18.783 5.649,-19.853 0.035,-1.909 -36.541,-29.072 -121.743,-90.412 L 128.83,474.883 c 0.429,-0.496 87.486,-1.536 193.459,-2.313 l 195.816,-2.371 c 1.726,-0.528 3.994,-4.525 5.04,-8.882 1.046,-4.357 9.273,-30.592 18.282,-58.3 L 597.609,228.096 639.223,101.53 c 1.752,-1.954 12.17,28.761 88.715,261.54 l 35.641,108.387 47.378,0.764 47.378,0.764 -16.575,25.189 c -60.06,91.271 -145.602,171.203 -240.032,224.291 -22.145,12.449 -88.365,43.092 -92.467,42.789 -1.479,-0.109 -18.647,-4.207 -38.151,-9.106 z" />
    <path
       id="D"
       d="M 319.055,926.015 C 220.627,913.43 120.794,873.954 55.05,821.623 c -8.205,-6.531 -14.321,-12.471 -13.592,-13.2 0.729,-0.729 13.11,1.834 27.512,5.697 78.577,21.073 144.93,30.432 216.5,30.539 60.798,0.09 93.753,-4.127 147.635,-18.895 132.542,-36.326 288.219,-135.147 376.947,-239.28 63.899,-74.993 96.415,-153.342 110.986,-267.428 5.732,-44.875 6.516,-153.519 1.452,-201.065 -1.941,-18.227 -2.933,-33.738 -2.203,-34.467 2.497,-2.497 23.757,56.386 30.978,85.8 11.777,47.975 16.328,92.642 16.395,160.927 0.188,189.834 -52.495,332.714 -163.402,443.157 -87.262,86.897 -198.074,140.297 -320.078,154.246 -35.056,4.008 -128.195,3.084 -165.125,-1.638 z" />
  </defs>
  <text
     xml:space="preserve"
     style="font-style:normal;font-variant:normal;font-weight:normal;font-stretch:normal;font-size:140.938px;font-family:'Avenir Next';-inkscape-font-specification:'Avenir Next, Normal';font-variant-ligatures:normal;font-variant-caps:normal;font-variant-numeric:normal;font-variant-east-asian:normal;text-align:start;writing-mode:lr-tb;direction:ltr;text-anchor:start;white-space:pre;inline-size:1078.77;display:inline;fill:none;stroke-width:0.75"
     x="1545.0107"
     y="241.43471"
     id="text51"
     transform="matrix(4.9667215,0,0,4.9667215,-6330.1996,-322.77032)"><tspan
       x="1545.0107"
       y="241.43471"
       id="tspan2"><tspan
         style="fill:#ffffff"
         id="tspan1">Kspace</tspan></tspan></text>
</svg>
